<?xml version="1.0" encoding="UTF-8" standalone="no"?>
<svg
   xmlns:dc="http://purl.org/dc/elements/1.1/"
   xmlns:cc="http://creativecommons.org/ns#"
   xmlns:rdf="http://www.w3.org/1999/02/22-rdf-syntax-ns#"
   xmlns:svg="http://www.w3.org/2000/svg"
   xmlns="http://www.w3.org/2000/svg"
   id="svg8"
   version="1.1"
   viewBox="0 0 264.58333 264.58334"
   height="1000"
   width="1000">
  <defs
     id="defs2" />
  <metadata
     id="metadata5">
    <rdf:RDF>
      <cc:Work
         rdf:about="">
        <dc:format>image/svg+xml</dc:format>
        <dc:type
           rdf:resource="http://purl.org/dc/dcmitype/StillImage" />
        <dc:title></dc:title>
      </cc:Work>
    </rdf:RDF>
  </metadata>
  <g
     transform="translate(0,-32.41665)"
     id="layer1">
    <path
       id="path3724"
       d="M 0,164.70831 V 32.416634 H 132.29167 264.58334 V 164.70831 296.99998 H 132.29167 0 Z m 137.54731,80.28637 c 7.96521,-2.01085 13.91744,-7.59961 16.75514,-15.73201 0.86565,-2.48084 0.8755,-2.56257 0.86042,-7.13977 -0.0116,-3.50995 -0.11403,-4.88627 -0.42349,-5.68855 l -0.40822,-1.05833 -22.49432,-0.0676 -22.49432,-0.0676 -0.30425,1.12596 c -1.2179,4.50712 -1.10468,7.95014 0.42418,12.89992 2.67795,8.66999 9.6535,14.61278 19.12505,16.29347 2.56151,0.45454 5.70546,0.25612 8.95981,-0.56544 z m 89.0554,-38.50009 c 1.92153,-0.71894 3.64172,-2.43913 4.36066,-4.36066 0.54585,-1.45892 0.54705,-1.57093 0.54705,-50.91937 0,-49.34844 -0.001,-49.46045 -0.54705,-50.91937 -0.71894,-1.921534 -2.43913,-3.641724 -4.36066,-4.360664 l -1.46214,-0.54706 h -92.8489 -92.8489 l -1.46213,0.54706 c -1.92154,0.71894 -3.64173,2.43913 -4.36067,4.360664 -0.54585,1.45892 -0.54705,1.57093 -0.54705,50.91937 0,49.34844 10e-4,49.46045 0.54705,50.91937 0.70085,1.87319 2.44121,3.63884 4.28542,4.3477 1.37836,0.5298 1.84652,0.53251 94.31021,0.54623 l 92.92497,0.0138 z M 54.90104,197.67571 c -2.44015,-0.77172 -3.93383,-2.0579 -4.94738,-4.26011 l -0.60887,-1.32291 -0.0695,-40.52864 c -0.0694,-40.48539 -0.0689,-40.53021 0.48091,-41.99961 0.7224,-1.93079 2.43855,-3.64911 4.36397,-4.3695 l 1.46214,-0.54706 h 76.70931 76.70932 l 1.46213,0.54706 c 1.92154,0.71893 3.64173,2.43913 4.36066,4.36066 0.54423,1.45458 0.54706,1.67041 0.54706,41.79125 0,40.12083 -0.003,40.33666 -0.54706,41.79125 -0.71893,1.92153 -2.43912,3.64172 -4.36066,4.36066 l -1.46213,0.54705 -76.52081,-0.0177 c -60.92811,-0.0141 -76.73646,-0.0859 -77.57913,-0.3524 z m 46.39156,-11.24019 c 1.83926,-1.50962 5.11912,-3.72109 6.78969,-4.57801 3.85539,-1.97763 4.6597,-2.34846 6.4823,-2.98871 6.01372,-2.11255 10.71697,-2.8862 17.4625,-2.87246 5.23181,0.0107 8.43764,0.39401 12.87924,1.54014 2.2835,0.58924 6.50347,2.12164 8.12068,2.94886 0.74655,0.38188 1.83362,0.93896 2.4157,1.23797 0.58209,0.299 1.35599,0.74137 1.71979,0.98303 0.36381,0.24167 1.43059,0.94899 2.37064,1.57184 2.13733,1.41613 4.03051,3.036 6.42727,5.4994 1.02649,1.05503 2.02638,1.91823 2.222,1.91823 0.19561,0 0.82654,-0.42541 1.40206,-0.94536 0.57552,-0.51995 1.46398,-1.26409 1.97436,-1.65365 0.51038,-0.38955 2.69422,-2.19656 4.85298,-4.01557 2.15876,-1.81901 4.32858,-3.63379 4.82181,-4.03285 2.19749,-1.7779 4.7356,-4.05662 4.75129,-4.26571 0.0331,-0.44118 -6.49178,-7.0863 -8.15733,-8.30762 -0.52449,-0.3846 -1.2774,-1.01409 -1.67313,-1.39886 -1.42517,-1.38573 -7.45789,-5.33731 -11.30223,-7.40324 -2.15783,-1.15961 -4.04529,-2.10839 -4.19436,-2.10839 -0.14906,0 -1.0858,-0.36719 -2.08163,-0.81598 -0.99583,-0.44879 -2.28685,-0.96882 -2.86893,-1.15561 -0.58209,-0.18679 -1.83224,-0.5873 -2.77813,-0.89002 -2.94136,-0.94135 -5.80255,-1.61991 -9.92187,-2.35306 -3.6535,-0.65026 -4.54672,-0.70695 -11.2448,-0.71373 -5.72516,-0.006 -7.7272,0.085 -9.39271,0.42606 -1.16416,0.23838 -3.24776,0.63397 -4.6302,0.87907 -2.89349,0.51301 -9.67005,2.452 -11.50938,3.2932 -0.29104,0.13311 -1.60073,0.68541 -2.91042,1.22735 -1.30968,0.54193 -2.50181,1.07552 -2.64916,1.18575 -0.14735,0.11023 -1.33798,0.76028 -2.64583,1.44455 -6.12769,3.20604 -11.46167,7.33078 -17.38665,13.44502 l -3.10248,3.20158 1.2303,1.06239 c 2.88891,2.49462 3.46086,2.97971 4.84237,4.10698 1.74355,1.42268 1.7196,1.40276 5.55625,4.61981 1.67349,1.40323 3.60021,3.03175 4.2816,3.61893 2.29427,1.97706 1.92337,2.01143 4.30587,-0.39899 1.17049,-1.1842 2.76373,-2.67475 3.54054,-3.31234 z M 63.83211,156.83696 c 4.22656,-4.31394 6.80453,-6.59436 11.7334,-10.37912 1.75105,-1.34458 4.78129,-3.44537 4.96972,-3.44537 0.0689,0 0.8183,-0.45678 1.66534,-1.01506 1.44674,-0.95355 8.38846,-4.80578 8.66001,-4.80578 0.0686,0 1.17361,-0.48814 2.45553,-1.08476 2.81882,-1.31191 7.4302,-3.03843 11.19431,-4.19118 1.52797,-0.46794 2.95672,-0.90926 3.175,-0.98072 0.21828,-0.0715 0.93266,-0.23577 1.5875,-0.36515 0.65484,-0.12937 2.55984,-0.5253 4.23333,-0.87986 6.47345,-1.37151 9.30716,-1.62081 18.38854,-1.61777 10.02278,0.003 11.63758,0.17756 21.82813,2.35471 2.61868,0.55946 9.86393,2.79224 12.03854,3.70992 6.43022,2.71355 8.3374,3.62942 13.22917,6.35289 3.21343,1.78907 8.23133,5.19411 11.56036,7.84461 3.12913,2.49136 3.6235,2.93032 7.05797,6.26689 1.69263,1.64437 3.34189,3.23941 3.66502,3.54452 l 0.58752,0.55476 1.39686,-1.19337 c 0.76827,-0.65636 1.94634,-1.71561 2.61793,-2.35391 0.6716,-0.63829 1.65386,-1.5642 2.18282,-2.05758 l 0.96173,-0.89705 v -9.59664 -9.59663 l -1.8166,-1.54486 c -0.99913,-0.84967 -2.4429,-2.02111 -3.20839,-2.60319 -0.76548,-0.58208 -1.70418,-1.31076 -2.086,-1.61928 -0.97185,-0.78527 -7.12002,-4.88799 -8.20892,-5.47787 -0.49506,-0.26819 -1.38803,-0.80387 -1.98437,-1.19041 -4.63018,-3.00118 -14.91411,-7.676 -22.46084,-10.21014 l -3.6146,-1.21376 H 131.8786 98.11608 l -3.48356,1.15898 c -8.19139,2.72526 -16.77708,6.69921 -24.08012,11.14566 -5.19727,3.16435 -9.99505,6.56222 -13.60083,9.63233 l -1.38907,1.18271 v 10.47321 10.47322 l 1.91823,1.64573 c 1.05503,0.90515 2.38564,2.12263 2.95692,2.70549 0.57128,0.58287 1.17504,1.05976 1.34169,1.05976 0.16666,0 1.0904,-0.80367 2.05277,-1.78593 z M 28.34168,97.239556 c 0.62438,-1.35052 2.48322,-3.33997 3.89751,-4.17137 l 1.2306,-0.72342 21.56355,-0.1323 21.56354,-0.13229 2.77812,-1.21691 c 2.91703,-1.27776 10.18283,-3.80726 13.51715,-4.70584 1.07854,-0.29066 2.3777,-0.65499 2.88702,-0.80963 4.14034,-1.25705 14.61507,-3.18637 20.80024,-3.831156 9.90546,-1.032614 20.89837,-1.039768 30.79351,-0.02003 5.58622,0.575676 8.41036,1.027496 15.08125,2.412716 6.86977,1.42653 17.97347,4.91513 22.88646,7.19054 l 2.11667,0.98032 21.69583,0.13229 c 21.49049,0.13104 21.70746,0.13767 22.92399,0.70007 1.55961,0.72101 2.67728,1.89159 3.59996,3.77038 l 0.72813,1.48267 0.1323,13.044224 0.13229,13.04423 1.19859,-1.13798 c 0.65924,-0.62589 2.14752,-2.01509 3.3073,-3.08712 1.15978,-1.07204 3.71603,-3.46505 5.68057,-5.31782 1.96453,-1.85277 4.01836,-3.75619 4.56406,-4.22983 0.5457,-0.47363 0.99219,-0.95537 0.99219,-1.07051 0,-0.24449 -5.86334,-6.19633 -7.81987,-7.9379 -0.73567,-0.65484 -1.98583,-1.789564 -2.77813,-2.521584 -2.16032,-1.99596 -6.12127,-5.21947 -11.09784,-9.03165 -3.74657,-2.86997 -9.23922,-6.5292 -14.02291,-9.342124 -1.81902,-1.069621 -3.60495,-2.129729 -3.96875,-2.355795 -1.31743,-0.818644 -8.25387,-4.343408 -12.03855,-6.117407 -5.29409,-2.481509 -15.2565,-6.243566 -20.6375,-7.793236 -0.87312,-0.251452 -2.29076,-0.690769 -3.1503,-0.97626 -0.85953,-0.285491 -3.12172,-0.877332 -5.02708,-1.315207 -1.90536,-0.437872 -4.0596,-0.95309 -4.7872,-1.144926 -0.7276,-0.191836 -2.15636,-0.490675 -3.175,-0.664088 -1.01865,-0.173411 -2.74505,-0.484463 -3.83646,-0.691227 -14.16012,-2.682601 -34.86485,-3.10886 -50.00625,-1.029507 -2.47575,0.339993 -5.96731,0.930955 -10.31875,1.746499 -3.06575,0.57458 -9.75918,2.182717 -12.03854,2.892332 -1.30969,0.407737 -3.27422,0.9822 -4.36563,1.276591 -7.57428,2.043044 -21.68633,7.94593 -30.32099,12.682879 -3.01442,1.653707 -10.53013,6.229456 -13.46755,8.199386 -3.14305,2.10783 -7.34601,5.12768 -7.80521,5.6081 -0.0728,0.0761 -0.42995,0.32771 -0.79375,0.55909 -0.57258,0.36416 -4.2248,3.34172 -7.14375,5.8241 -2.6152,2.22406 -6.0499,5.450754 -9.18377,8.627594 l -3.49523,3.54315 2.4369,2.31216 c 1.34029,1.27169 3.02387,2.84044 3.74129,3.48612 0.71742,0.64568 2.56289,2.37718 4.10105,3.84778 1.53815,1.4706 3.57054,3.3591 4.51643,4.19667 l 1.71979,1.52285 0.13229,-13.32479 C 27.89573,99.960036 27.9712,98.040886 28.34168,97.239556 Z"
       style="fill:#000000;stroke-width:0.26458335" />
  </g>
</svg>
