<?xml version="1.0" encoding="UTF-8" standalone="no"?>
<svg
   xmlns:dc="http://purl.org/dc/elements/1.1/"
   xmlns:cc="http://creativecommons.org/ns#"
   xmlns:rdf="http://www.w3.org/1999/02/22-rdf-syntax-ns#"
   xmlns:svg="http://www.w3.org/2000/svg"
   xmlns="http://www.w3.org/2000/svg"
   xmlns:xlink="http://www.w3.org/1999/xlink"
   id="svg34"
   version="1.1"
   viewBox="0 0 1001 1001">
  <metadata
     id="metadata38">
    <rdf:RDF>
      <cc:Work
         rdf:about="">
        <dc:format>image/svg+xml</dc:format>
        <dc:type
           rdf:resource="http://purl.org/dc/dcmitype/StillImage" />
        <dc:title>Beacon</dc:title>
      </cc:Work>
    </rdf:RDF>
  </metadata>
  <defs
     id="defs4">
    <style
       id="style2">.cls-1,.cls-3{stroke:#000;}.cls-1,.cls-2{stroke-miterlimit:10;}.cls-2,.cls-6{fill:none;}.cls-2,.cls-5,.cls-6{stroke:#fff;}.cls-2{stroke-width:54px;}.cls-3,.cls-5,.cls-6{stroke-linejoin:round;}.cls-3{stroke-width:108px;}.cls-4{fill:#fff;}.cls-5{stroke-width:37px;}.cls-6{stroke-width:25px;}.cls-7{opacity:0;}</style>
  </defs>
  <title
     id="title6">Beacon</title>
  <g
     data-name="Layer 1"
     id="Layer_1">
    <rect
       id="rect8"
       height="1000"
       width="1000"
       y="0.5"
       x="0.5"
       class="cls-1" />
  </g>
  <g
     data-name="Layer 4"
     id="Layer_4">
    <circle
       id="circle11"
       r="217.57"
       cy="507.5"
       cx="500.5"
       class="cls-2" />
  </g>
  <g
     data-name="Layer 7"
     id="Layer_7">
    <circle
       id="circle14"
       r="318.63"
       cy="507.5"
       cx="500.5"
       class="cls-2" />
  </g>
  <g
     data-name="Layer 5"
     id="Layer_5">
    <circle
       id="circle17"
       r="415.06"
       cy="507.5"
       cx="500.5"
       class="cls-2" />
  </g>
  <g
     data-name="Layer 8"
     id="Layer_8">
    <polyline
       id="polyline20"
       points="299.06 950.38 500.5 85.44 697.37 949.32"
       class="cls-3" />
    <circle
       id="circle22"
       transform="translate(275.28 574.45) rotate(-76.72)"
       r="85.12"
       cy="113.38"
       cx="500"
       class="cls-4" />
    <path
       id="path24"
       transform="translate(0.5 0.5)"
       d="M500,48.26a65.12,65.12,0,1,1-65.12,65.12A65.11,65.11,0,0,1,500,48.26m0-40A105.12,105.12,0,1,0,605.12,113.38,105.24,105.24,0,0,0,500,8.26Z" />
    <polyline
       id="polyline26"
       points="312.07 899.79 500.5 113.88 688.93 899.79"
       class="cls-5" />
    <polyline
       id="polyline28"
       points="679.69 862.11 378.84 627.78 378.84 624.78 596.98 514.15 596.98 515.15 442.65 359.63"
       class="cls-6" />
  </g>
  <g
     data-name="Layer 6"
     id="Layer_6">
    <image
       xlink:href="Beacon.png"
       id="image31"
       transform="translate(0.5 0.5) scale(2.67)"
       height="375"
       width="375"
       class="cls-7" />
  </g>
  <rect
     y="897.52722"
     x="349.40814"
     height="97.474373"
     width="293.92273"
     id="rect845"
     style="fill:#000000" />
</svg>
